<?xml version="1.0" encoding="UTF-8"?><svg id="Layer_1" xmlns="http://www.w3.org/2000/svg" xmlns:xlink="http://www.w3.org/1999/xlink" viewBox="0 0 1024 1024"><defs><style>.cls-1{fill:#10141e;}.cls-2{filter:url(#drop-shadow-2);}.cls-2,.cls-3,.cls-4,.cls-5{fill:#4affce;}.cls-2,.cls-5{fill-rule:evenodd;}.cls-6{fill:#ffe708;}.cls-7{fill:none;filter:url(#drop-shadow-3);}.cls-4{filter:url(#drop-shadow-1);}</style><filter id="drop-shadow-1" filterUnits="userSpaceOnUse"><feOffset dx="21" dy="0"/><feGaussianBlur result="blur" stdDeviation="40"/><feFlood flood-color="#000" flood-opacity=".42"/><feComposite in2="blur" operator="in"/><feComposite in="SourceGraphic"/></filter><filter id="drop-shadow-2" filterUnits="userSpaceOnUse"><feOffset dx="21" dy="0"/><feGaussianBlur result="blur-2" stdDeviation="40"/><feFlood flood-color="#000" flood-opacity=".42"/><feComposite in2="blur-2" operator="in"/><feComposite in="SourceGraphic"/></filter><filter id="drop-shadow-3" filterUnits="userSpaceOnUse"><feOffset dx="0" dy="0"/><feGaussianBlur result="blur-3" stdDeviation="40"/><feFlood flood-color="#000" flood-opacity=".2"/><feComposite in2="blur-3" operator="in"/><feComposite in="SourceGraphic"/></filter></defs><rect class="cls-1" x="0" y="-1.25" width="1024" height="1024" rx="512" ry="512"/><path class="cls-5" d="m688.87,413.25h70.38c6.27,0,12.43-3.06,16.14-8.69,2.53-3.85,3.52-8.25,3.09-12.5-1.77-3.99-3.63-7.95-5.59-11.84h0c-11.73-23.48-26.5-45.13-43.82-64.47-7.22-8.1-14.9-15.78-22.99-22.99-28.13-25.19-61.17-45.01-97.5-57.86-30.5-10.78-63.31-16.64-97.5-16.64v97.5c35.52,0,68.82,9.51,97.5,26.09,23.85,13.79,44.5,32.49,60.57,54.72,3.18,4.39,6.17,8.91,8.99,13.56"/><rect class="cls-3" x="495.26" y="510.75" width="144" height="97.26"/><path class="cls-3" d="m786.91,608.25c-12.85,36.33-32.68,69.37-57.86,97.5-7.22,8.1-14.9,15.78-22.99,22.99-28.13,25.19-61.17,45.01-97.5,57.86-30.5,10.78-63.31,16.64-97.5,16.64v-97.5c35.52,0,68.82-9.51,97.5-26.09,29.6-17.12,54.29-41.8,71.41-71.41h106.95Z"/><path class="cls-4" d="m802.94,529.76c-.32,5.01-.77,9.98-1.34,14.92-2.55,22.03-7.53,43.31-14.69,63.56h-275.86c53.84,0,97.5-43.66,97.5-97.5h170.62c11.62,0,21.34,8.13,23.77,19.01Z"/><path class="cls-3" d="m772.88,380.22h0c-.89-.91-1.9-1.73-3.01-2.46-8.91-5.88-20.91-3.41-26.79,5.51-4.4,6.68-4.13,15.06.01,21.33l9.3,7.39c2.22.84,4.54,1.26,6.84,1.26,6.27,0,12.43-3.06,16.14-8.69,2.53-3.85,3.52-8.25,3.09-12.5"/><path class="cls-3" d="m683.65,373.99c7.47-2.03,15.79.45,20.89,6.93,6.83,8.67,5.34,21.22-3.34,28.04-3.66,2.88-8.02,4.28-12.34,4.28-3.76,0-7.5-1.06-10.74-3.13"/><path class="cls-3" d="m669.14,396.56c-.91-5.57.56-11.39,4.22-15.88"/><path class="cls-2" d="m416.06,341.84c28.68-16.59,61.98-26.09,97.5-26.09v-97.5c-34.19,0-67,5.86-97.5,16.64-36.33,12.85-69.37,32.68-97.5,57.86v22.99h-22.99c-25.19,28.13-45.01,61.17-57.86,97.5-10.78,30.5-16.64,63.31-16.64,97.5s5.86,67,16.64,97.5c12.85,36.33,32.68,69.37,57.86,97.5,7.22,8.1,14.9,15.78,22.99,22.99,28.13,25.19,61.17,45.01,97.5,57.86,30.5,10.78,63.31,16.64,97.5,16.64v-97.5c-35.52,0-68.82-9.51-97.5-26.09-29.6-17.12-54.29-41.8-71.41-71.41-16.59-28.68-26.09-61.98-26.09-97.5s9.51-68.82,26.09-97.5c17.12-29.6,41.8-54.29,71.41-71.41Zm-120.49-26.09h22.99v-22.99c-8.1,7.22-15.78,14.9-22.99,22.99Z"/><path class="cls-3" d="m802.94,529.76c-2.42-10.89-12.15-19.01-23.77-19.01-13.46,0-24.38,10.91-24.38,24.38s10.91,24.38,24.38,24.38c10.08,0,18.71-6.11,22.42-14.81"/><g class="cls-7"><path class="cls-6" d="m636.21,510.75c0,1.81-.31,3.55-.88,5.18-1.36,3.85-4.17,6.97-7.8,8.76-.02.02-.03.02-.07.03-.53.21-1.07.43-1.6.67-.05.02-.09.03-.14.05-2.78,1.17-5.54,2.42-8.25,3.73-1.17.57-2.35,1.14-3.5,1.74-.24.1-.48.22-.71.35-1.07.55-2.14,1.12-3.19,1.69-.33.16-.66.33-.98.53-1.09.59-2.19,1.21-3.26,1.81-.19.1-.38.21-.57.35-1.14.66-2.28,1.31-3.4,2-1.16.69-2.31,1.4-3.45,2.14-1.19.76-2.38,1.54-3.55,2.33-1.5.98-2.97,2-4.43,3.04-.95.69-1.92,1.38-2.85,2.09-.79.57-1.59,1.16-2.38,1.78-1.07.81-2.12,1.64-3.17,2.48-.09.05-.16.12-.24.19-1.17.93-2.35,1.9-3.5,2.88-.21.17-.41.35-.62.53-.86.72-1.73,1.47-2.59,2.24-.6.52-1.21,1.05-1.79,1.6-1.04.91-2.05,1.86-3.07,2.83-1.22,1.16-2.45,2.35-3.64,3.54s-2.38,2.42-3.54,3.64c-.97,1.02-1.92,2.04-2.83,3.07-.55.59-1.09,1.19-1.6,1.79-.78.86-1.52,1.73-2.24,2.59-.19.21-.36.41-.53.62-.98,1.16-1.93,2.31-2.88,3.5-.07.09-.14.16-.19.24-.85,1.05-1.67,2.1-2.48,3.17-.62.79-1.21,1.59-1.78,2.38-.71.93-1.4,1.9-2.09,2.85-1.04,1.47-2.05,2.93-3.04,4.43-.79,1.17-1.57,2.36-2.33,3.55-.74,1.14-1.45,2.29-2.14,3.45-.69,1.12-1.35,2.26-2,3.4-.14.19-.24.38-.35.57-.6,1.07-1.22,2.17-1.81,3.26-.21.33-.38.66-.53.98-.57,1.05-1.14,2.12-1.69,3.19-.12.22-.24.47-.35.71-.6,1.16-1.17,2.33-1.74,3.5-1.31,2.71-2.55,5.47-3.73,8.25-.02.05-.03.09-.05.14-.24.53-.47,1.07-.67,1.6-.02.03-.02.05-.03.07-1.79,3.62-4.92,6.43-8.76,7.8-1.62.57-3.36.88-5.18.88s-3.55-.31-5.18-.88c-3.85-1.36-6.97-4.17-8.76-7.8-.02-.02-.02-.03-.03-.07-.21-.53-.43-1.07-.67-1.6-.02-.05-.03-.09-.05-.14-1.17-2.78-2.42-5.54-3.73-8.25-.28-.59-.57-1.17-.86-1.76-.41-.9-.86-1.78-1.33-2.64-.52-1-1.05-2.02-1.59-3-.14-.31-.31-.6-.5-.91.02-.02,0-.05-.03-.07-.29-.55-.59-1.09-.9-1.64-.29-.55-.6-1.09-.91-1.62-.09-.16-.17-.33-.29-.48-.33-.6-.67-1.21-1.04-1.79-.35-.57-.67-1.12-1.02-1.69-1.41-2.36-2.92-4.71-4.47-7-.33-.5-.67-1-1.02-1.5-2.69-3.97-5.54-7.83-8.56-11.58-.93-1.17-1.9-2.35-2.88-3.5-.21-.26-.43-.53-.69-.79-.62-.78-1.29-1.54-1.98-2.29-.02-.03-.05-.09-.1-.12-.52-.6-1.05-1.21-1.6-1.79-4.12-4.57-8.51-8.95-13.08-13.08-.59-.55-1.19-1.09-1.79-1.6-.03-.05-.09-.09-.12-.1-.76-.69-1.52-1.36-2.29-1.98-.26-.26-.53-.48-.79-.69-1.16-.98-2.33-1.95-3.5-2.88-3.74-3.02-7.61-5.87-11.58-8.56-.5-.34-1-.69-1.5-1.02-2.29-1.55-4.64-3.05-7-4.47-.57-.34-1.12-.67-1.69-1.02-.59-.36-1.19-.71-1.79-1.04-.16-.12-.33-.21-.48-.29-.53-.31-1.07-.62-1.62-.91-.55-.31-1.09-.6-1.64-.9-.02-.03-.05-.05-.07-.03-.31-.19-.6-.36-.91-.5-.98-.53-2-1.07-3-1.59-.86-.47-1.74-.91-2.64-1.33-.59-.29-1.17-.59-1.76-.86-2.71-1.31-5.47-2.55-8.25-3.73-.05-.02-.09-.03-.14-.05-.53-.24-1.07-.47-1.6-.67-.03-.02-.05-.02-.07-.03-3.62-1.79-6.43-4.92-7.8-8.76-.57-1.62-.88-3.36-.88-5.18s.31-3.55.88-5.18c1.36-3.85,4.17-6.97,7.8-8.76.02-.02.03-.02.07-.03.53-.21,1.07-.43,1.6-.67.05-.02.09-.03.14-.05,44.53-18.82,80.2-54.5,99.02-99.02.02-.05.03-.09.05-.14.24-.53.47-1.07.67-1.6.02-.03.02-.05.03-.07,1.79-3.62,4.92-6.43,8.76-7.8,1.62-.57,3.36-.88,5.18-.88s3.55.31,5.18.88c3.85,1.36,6.97,4.17,8.76,7.8.02.02.02.03.03.07.21.53.43,1.07.67,1.6.02.05.03.09.05.14,18.82,44.53,54.5,80.2,99.02,99.02.05.02.09.03.14.05.53.24,1.07.47,1.6.67.03.02.05.02.07.03,3.62,1.79,6.43,4.92,7.8,8.76.57,1.62.88,3.36.88,5.18Z"/></g></svg>