<?xml version="1.0" encoding="UTF-8"?><svg id="Layer_1" xmlns="http://www.w3.org/2000/svg" viewBox="0 0 1024 1024"><defs><style>.cls-1{stroke:#117354;}.cls-1,.cls-2,.cls-3,.cls-4,.cls-5,.cls-6,.cls-7,.cls-8,.cls-9,.cls-10,.cls-11,.cls-12,.cls-13,.cls-14,.cls-15,.cls-16,.cls-17,.cls-18,.cls-19,.cls-20,.cls-21,.cls-22,.cls-23,.cls-24,.cls-25,.cls-26,.cls-27,.cls-28,.cls-29,.cls-30,.cls-31,.cls-32,.cls-33,.cls-34,.cls-35,.cls-36{fill:none;stroke-width:2px;}.cls-37{fill:#f4bf24;}.cls-2{stroke:#0ad0a9;}.cls-3{stroke:#88521f;}.cls-4{stroke:#8f6914;}.cls-5{stroke:#908d8e;}.cls-38{fill:#340f04;}.cls-6{stroke:#d690c7;}.cls-7{stroke:#d63b50;}.cls-39{fill:#ee881f;}.cls-8{stroke:#901e56;}.cls-9{stroke:#1b7874;}.cls-10{stroke:#fd9f00;}.cls-11{stroke:#8b6d21;}.cls-40{fill:#007dcd;}.cls-12{stroke:#0ac8e3;}.cls-41{fill:#14d5c9;}.cls-13{stroke:#7e9e7e;}.cls-14{stroke:#114c76;}.cls-42{fill:#00bbfc;}.cls-15{stroke:#903818;}.cls-43{fill:#fe5411;}.cls-16{stroke:#f9be12;}.cls-44{fill:#ff218d;}.cls-45{fill:#2a1203;}.cls-17{stroke:#00c3c3;}.cls-18{stroke:#7fe5c4;}.cls-46{fill:#febd00;}.cls-19{stroke:#116b8d;}.cls-20{stroke:#906c0f;}.cls-21{stroke:#8c4d11;}.cls-47{fill:#ad228f;}.cls-48{fill:#e65922;}.cls-22{stroke:#843a20;}.cls-23{stroke:#8f4e0f;}.cls-49{fill:#00cb89;}.cls-24{stroke:#f2571a;}.cls-25{stroke:#934a02;}.cls-26{stroke:#7fbee6;}.cls-27{stroke:#f2ac90;}.cls-28{stroke:#fede7f;}.cls-29{stroke:#f9df91;}.cls-30{stroke:#99320b;}.cls-50{fill:#36ea9c;}.cls-31{stroke:#671f57;}.cls-32{stroke:#2b1511;}.cls-51{fill:#211b1e;}.cls-33{stroke:#fea988;}.cls-34{stroke:#261711;}.cls-35{stroke:#946802;}.cls-36{stroke:#f58510;}.cls-52{fill:#fc8100;}</style></defs><path class="cls-5" d="m480.25,298.52c-2.51,12.59-5.43,25.09-8.76,37.51-.09.35.01.76.28,1.11l39.03,51.47c.08.11.24.14.34.07.02-.01.03-.03.05-.05l39.35-50.26c.6-.77.79-1.86.52-2.95l-9.3-37.57" vector-effect="non-scaling-stroke"/><path class="cls-14" d="m541.76,297.86c5.76.03,10.94.65,15.54,1.86,7.81,2.06,17.23,4.93,28.25,8.61.32.11.66-.06.77-.37h0c18.14-55.89,35.95-111.89,53.42-167.99.41-1.3.95-2.62,1.63-3.97.13-.25.04-.56-.21-.69-.03,0-.05-.03-.08-.03-84.91-27.04-173.88-26.85-258.52.26-.33.1-.52.45-.44.79,1.1,4.74,3.38,10.28,4.45,13.72,16.35,52.84,32.53,105.69,49.54,158.32.1.31.43.47.73.38h.03c12.27-4.83,25.19-8.64,38.75-11.45,1.99-.41,3.53,0,4.63,1.23" vector-effect="non-scaling-stroke"/><path class="cls-26" d="m541.76,297.86c-9.43-41.68-18.36-83.51-26.79-125.5-.3-1.5-2.88-16.11-3.06-16.17-.12-.04-.26.08-.31.27v.04c-1.37,8.17-3.69,19.58-6.94,34.21-11.09,49.93-19.23,85.86-24.4,107.8" vector-effect="non-scaling-stroke"/><path class="cls-9" d="m229.13,228.19l-2.75,2.62" vector-effect="non-scaling-stroke"/><path class="cls-19" d="m226.38,230.81c-37.49,37.9-66.24,81.49-86.24,130.76-.09.22,0,.47.22.57,55.89,26.9,111.2,54.79,168,79.78.28.13.62,0,.75-.28,0-.02.01-.03.02-.05,11.14-31.43,28.16-59.11,51.06-83.04" vector-effect="non-scaling-stroke"/><path class="cls-9" d="m360.19,358.55l2.29-2.19" vector-effect="non-scaling-stroke"/><path class="cls-1" d="m362.48,356.36c20.68-20.15,44.67-35.69,71.98-46.62.3-.12.45-.46.33-.76v-.02c-24.74-55.07-49.94-109.36-75.41-164.25-.21-.46-.75-.68-1.23-.49-48.4,19.46-91.4,47.45-129,83.97" vector-effect="non-scaling-stroke"/><path class="cls-2" d="m362.48,356.36c-8.25-8.98-16.98-17.52-26.18-25.63-30.38-26.77-59.21-55.55-87.74-84.26-2.22-2.23-5.48-5.25-9.79-9.04-3.37-2.96-6.59-6.03-9.64-9.23" vector-effect="non-scaling-stroke"/><path class="cls-12" d="m360.19,358.55c-8.41-7.37-18.3-18.03-23.78-23.45-15.57-15.37-31.01-30.83-47.11-45.76-21.01-19.48-41.98-38.99-62.92-58.53" vector-effect="non-scaling-stroke"/><path class="cls-8" d="m882.96,362.69c-40.21-99.71-119.5-178.68-219.22-218.54-.35-.14-.75.02-.91.37-20.17,43.44-40.19,86.57-60.07,129.39-3.76,8.09-8.78,19.73-15.05,34.92-.12.31.02.65.32.77h.01c61.12,23.52,106.45,70.56,126.49,132.78.06.19.29.29.51.21.02,0,.03-.01.05-.02,56.09-25.84,111.94-52.17,167.56-79,.32-.15.45-.54.32-.89" vector-effect="non-scaling-stroke"/><path class="cls-19" d="m308.64,577.6c-8.43,3.47-16.8,7.1-25.09,10.9-44,20.13-87.83,40.62-131.5,61.48-4.29,2.05-8.51,4.15-12.65,6.3-.21.11-.3.36-.21.57,19.14,49.46,47.38,92.96,84.73,130.5" vector-effect="non-scaling-stroke"/><path class="cls-23" d="m223.93,787.35c.28.57.66,1.09,1.13,1.57,35.56,35.62,81.37,68.83,128.66,86.88.32.13.69-.01.87-.33,1.56-2.75,3.43-6.53,5.61-11.36,23.95-53.13,49.41-105.53,73.13-158.79" vector-effect="non-scaling-stroke"/><path class="cls-3" d="m433.32,705.33l1-2.27c.13-.3-.01-.64-.32-.77h-.01c-22.79-9.4-43.65-22.01-62.58-37.83" vector-effect="non-scaling-stroke"/><path class="cls-23" d="m371.42,664.45l-10.01-9.52" vector-effect="non-scaling-stroke"/><path class="cls-19" d="m361.41,654.93c-21.53-20.91-37.93-45.64-49.2-74.21" vector-effect="non-scaling-stroke"/><path class="cls-1" d="m312.21,580.72c-5.27-14.38-9.21-29.3-11.8-44.78" vector-effect="non-scaling-stroke"/><path class="cls-5" d="m300.41,535.94c-.82-16.75-.94-33.72-.35-50.93" vector-effect="non-scaling-stroke"/><path class="cls-1" d="m300.06,485.01c1.71-14.06,4.58-27.87,8.63-41.44.04-.13.03-.26-.02-.3-.01,0-.03-.01-.04,0h-.29c-.46,0-.83-.05-1.12-.15l-174.05-58.68c-.33-.11-.69.08-.8.41-26.88,80.03-27.05,167.9-1.47,248.15.1.32.44.5.76.4h0c58.66-18.89,117.36-37.77,176.08-56.64,2.02-.64,2.32-.36.9.84" vector-effect="non-scaling-stroke"/><path class="cls-18" d="m300.06,485.01l-144.16,23.37c-.46.07-.81.35-.8.66,0,.47.5.79,1.49.95,27.73,4.69,75.68,13.34,143.83,25.95" vector-effect="non-scaling-stroke"/><path class="cls-17" d="m312.21,580.72c-.15-2.36-1.34-3.4-3.57-3.12" vector-effect="non-scaling-stroke"/><path class="cls-13" d="m361.41,654.93l-137.48,132.42" vector-effect="non-scaling-stroke"/><path class="cls-36" d="m371.42,664.45c-1.83.62-1.71,2.32-.41,3.41,16.82,14.27,37.51,28.34,58.56,35.34.49.16.56.37.87.71.22.26.58.39.98.35.83-.09,1.47.27,1.93,1.07" vector-effect="non-scaling-stroke"/><path class="cls-20" d="m746.23,433.77l-30.51,10.21c-.32.1-.5.45-.41.78,3.6,13.01,6.2,26.22,7.81,39.64" vector-effect="non-scaling-stroke"/><path class="cls-5" d="m723.12,484.4c.6,17.37.47,34.74-.4,52.11" vector-effect="non-scaling-stroke"/><path class="cls-11" d="m722.72,536.51c-2.35,13.25-5.62,26.27-9.82,39.04-.1.31.08.65.4.75h0l103.02,32.68" vector-effect="non-scaling-stroke"/><path class="cls-20" d="m816.32,608.99c25.39,7.73,50.51,16.36,76.04,23.63.39.12.8-.11.93-.5,5.92-19.61,10.59-39.47,14.01-59.58" vector-effect="non-scaling-stroke"/><path class="cls-34" d="m907.29,572.54l3.14-4.78c.22-.33.34-.72.34-1.11-.06-4.02,1.68-7.35,1.88-11.1.19-3.63.91-7.26.88-10.79-.17-14.21,1.1-28.61.65-42.5-.37-11.38-.46-22.93-1.49-34.02-.82-8.91-1.1-17.61-3.77-26.35-2.67-8.73-3.06-17.74-5.34-26.27-2.45-9.19-4.49-18.59-9.08-28.1-.14-.28-.44-.56-.84-.77l-2.02-1.08" vector-effect="non-scaling-stroke"/><path class="cls-11" d="m891.63,385.67c.02-.43-.1-.69-.56-.54-48.32,16.11-96.6,32.32-144.84,48.63" vector-effect="non-scaling-stroke"/><path class="cls-4" d="m891.63,385.67c-.02.62.16,1.53.56,2.74,15.55,47.7,21.83,96.96,18.84,147.79" vector-effect="non-scaling-stroke"/><path class="cls-16" d="m911.04,536.21c-1.6-1.94-2.35-4.48-2.26-7.61.14-4.4.21-14.14.21-29.19,0-7.18-.3-14.07-.91-20.67-.3-3.21-1.27-20.45-2.78-21.95-.3-.3-.47-.66-.48-1-.16-11.13-3.63-21.28-5.62-31.11-1.75-8.61-4.06-17.06-6.95-25.38-1.22-3.51-2.32-5.96-2.07-9.82.03-.4-.28-.74-.68-.76-.11,0-.23.01-.33.06-10.41,4.42-21.21,7.61-31.62,11.38-5.85,2.12-9.66,3.42-11.43,3.89-14.26,3.82-24.29,7.14-39.75,12.49-4.42,1.54-8.81,3.15-13.18,4.85-12.06,4.69-26.44,7.57-36.99,11.43-1.12.41-1.98.64-2.58.71-.46.05-.84.16-1.12.34-2.09,1.37-4.18,1.34-6.27-.1" vector-effect="non-scaling-stroke"/><path class="cls-35" d="m907.29,572.54l3.75-36.34" vector-effect="non-scaling-stroke"/><path class="cls-16" d="m816.32,608.99c-.2-.5-.29-1.04-.26-1.62.02-.37-.18-.7-.5-.82-11.21-4.06-20.08-7-26.61-8.8-7.08-1.95-14.09-4.83-20.09-6.57-12.98-3.8-25.74-8.22-38.3-13.24-3.62-1.45-7.87-2.69-12.75-3.73-1.89-.41-2.21-1.35-.98-2.83,1.13-1.35,1.41-3.86,1.78-5,3.09-9.62,4.96-19.48,5.62-29.57" vector-effect="non-scaling-stroke"/><path class="cls-28" d="m724.24,536.81c.29-.26.94-.71,1.33-.78,46.68-8.62,93.35-17.37,139.99-26.23.83-.16,3.6-.06,2.39-1.56-.22-.27-.58-.47-1.01-.54-47.44-7.83-93.64-14.33-143.82-23.31" vector-effect="non-scaling-stroke"/><path class="cls-29" d="m724.24,536.81l-1.52-.3" vector-effect="non-scaling-stroke"/><path class="cls-31" d="m494.78,715.99c-.15-.03-.28-.02-.39.02-.3.14-.5.2-.6.19-19.47-1.93-37.88-6.05-55.23-12.35-1.54-.55-2.58-.06-3.12,1.47-20.95,59.32-39.89,118.73-58.25,178.7-.09.29.08.59.37.68,13.21,3.85,27.32,8.19,39.87,11.03,30.2,6.83,60.92,10.25,92.14,10.24" vector-effect="non-scaling-stroke"/><path class="cls-15" d="m509.57,906l6.59.1" vector-effect="non-scaling-stroke"/><path class="cls-32" d="m516.16,906.1c.76,4.4,36.74.66,42.59.28,19.44-1.26,40.05-5.9,59.74-11.15,8.93-2.39,17.95-5.15,27.06-8.29.76-.26,1.33-.88,1.52-1.66.2-.85.12-1.36-.26-1.54" vector-effect="non-scaling-stroke"/><path class="cls-15" d="m646.82,883.74c-19.24-59.09-38.94-118.06-59.09-176.89" vector-effect="non-scaling-stroke"/><path class="cls-22" d="m587.72,706.85l-1.23-2.86c-.14-.32-.49-.49-.82-.4-3.18.88-6.33,1.82-9.47,2.82-15.03,4.79-30.4,7.96-46.1,9.51-.65.07-1.73.3-3.23.69" vector-effect="non-scaling-stroke"/><path class="cls-5" d="m526.88,716.6l11.96-153.05c.06-.76.5-1.44,1.16-1.82,22.11-12.47,34.08-35.48,30.92-60.54-5.53-43.84-53.94-67.14-91.95-44.49-41.38,24.65-37.47,83.28,3.49,105.62.27.15.45.43.48.74l11.86,152.92" vector-effect="non-scaling-stroke"/><path class="cls-27" d="m526.88,716.6l-2.68,32.28" vector-effect="non-scaling-stroke"/><path class="cls-33" d="m524.19,748.88c-3.49,43.77-7.81,87.45-12.96,131.04-.04.31-.42.42-1.15.34" vector-effect="non-scaling-stroke"/><path class="cls-6" d="m510.09,880.27c-5.88-54.68-10.98-109.44-15.31-164.27" vector-effect="non-scaling-stroke"/><path class="cls-7" d="m510.09,880.27l-.52,25.73" vector-effect="non-scaling-stroke"/><path class="cls-30" d="m646.82,883.74c-42.55,14.46-86.1,21.91-130.65,22.35" vector-effect="non-scaling-stroke"/><path class="cls-24" d="m587.72,706.85c-3.54-1.71-6.64-1.23-9.29,1.44-.3.3-.65.5-1.01.59-6.07,1.39-12.09,2.99-18.05,4.79-9.25,2.8-18.66,4.68-28.24,5.64-.53.05-.96.55-1,1.18l-1.55,25.29c-.15,2.33-.73,3.58-1.74,3.73-.77.12-1.65-.09-2.65-.63" vector-effect="non-scaling-stroke"/><path class="cls-11" d="m660.91,656.6c-21.14,19.88-45.25,35.13-72.35,45.75-.51.2-.78.75-.6,1.23,0,.02.02.04.03.06l1.62,3.45" vector-effect="non-scaling-stroke"/><path class="cls-20" d="m589.6,707.08l52.11,111.55" vector-effect="non-scaling-stroke"/><path class="cls-34" d="m641.71,818.64c-1.67.57-2.12,1.63-1.35,3.19,5.14,10.36,9.89,20.9,14.26,31.62,1.43,3.5,4.11,6.4,5.79,9.99,2.75,5.85,4.64,9.4,7.08,14.07.3.58.98.84,1.58.61,14.97-5.74,27.16-11.21,43.3-19.93,20.33-10.98,39.55-24.55,57.78-38.71,6.23-4.84,11.96-10.91,17.94-16.44,33.24-30.74,54.52-58.29,75.86-95.78,8.06-14.16,14.91-29.03,20.55-44.64.56-1.54,1.3-2.98,2.21-4.34,1.74-2.57,1.09-3.65-1.94-3.24" vector-effect="non-scaling-stroke"/><path class="cls-3" d="m884.77,655.04c-54.04-25.35-108.33-50.13-162.87-74.34" vector-effect="non-scaling-stroke"/><path class="cls-23" d="m721.9,580.7l-7.2-2.49" vector-effect="non-scaling-stroke"/><path class="cls-20" d="m714.7,578.21c-.15-.37-.8-.46-1.93-.29-.36.06-.67.32-.82.68-11.28,29.78-28.29,55.78-51.05,78" vector-effect="non-scaling-stroke"/><path class="cls-10" d="m714.7,578.21c-7.26,22.49-18.28,42.62-33.08,60.38-3.09,3.7-6.79,7.47-11.1,11.31-2.36,2.12-8.48,3.4-3.79,7.85,43.99,41.74,87.85,83.62,131.57,125.62.97.93,2.02,1.73,3.14,2.4" vector-effect="non-scaling-stroke"/><path class="cls-35" d="m801.44,785.78c-36.8,37.96-79.54,67.31-128.2,88.07-4.74,2.02-4.42,1.66-6.33-2.41-8.27-17.68-16.67-35.28-25.19-52.79" vector-effect="non-scaling-stroke"/><path class="cls-16" d="m589.6,707.08c6.08-4.49,12.54-8.33,19.39-11.54,3.71-1.74,7.25-3.63,10.64-5.67,6.86-4.16,12.77-6.63,20.47-12.09,5.84-4.14,8.79-6.22,8.84-6.27,5.06-4.03,9.05-9,11.97-14.92" vector-effect="non-scaling-stroke"/><path class="cls-36" d="m721.9,580.7c-.8,4.89,2.9,4.12,5.46,5.33,10.35,4.92,29.25,13.39,56.7,25.43,12.2,5.35,34.51,16.64,58.74,27.02,11.91,5.11,22.72,11.01,35.37,15.85,2.38.92,3.05,2.54,2.01,4.86-.85,1.9-1.12,4.7-.8,8.39" vector-effect="non-scaling-stroke"/><path class="cls-25" d="m879.38,667.57c-17.43,42.09-44.51,85.86-77.95,118.21" vector-effect="non-scaling-stroke"/><path class="cls-21" d="m884.77,655.04l-5.39,12.53" vector-effect="non-scaling-stroke"/><path class="cls-51" d="m475.04,1004.33C194.31,984.58-14.7,735.14,16.75,454.6c13.82-123.34,77.11-242.73,171.98-322.89,70.64-59.7,152.13-96.74,244.46-111.12,36.51-5.68,74.09-6.5,110.93-4.45,92.64,5.17,186.97,38.35,261.63,93.43,91.03,67.16,160.01,163.8,188.42,274.3,28.62,111.29,19.72,228.5-29.64,332.64-71.23,150.32-211.41,259.2-377.4,283.09-24.53,3.53-42.93,5.32-55.19,5.38-18.92.1-38.63.62-56.9-.66h0Zm5.22-706.25c-2.51,12.59-5.43,25.09-8.76,37.51-.09.35.01.76.28,1.11l39.03,51.47c.08.11.24.14.34.07.02-.01.03-.03.05-.05l39.35-50.26c.6-.77.79-1.86.52-2.95l-9.3-37.57c5.76.03,10.94.65,15.54,1.86,7.81,2.06,17.23,4.93,28.25,8.61.32.11.66-.06.77-.37h0c18.14-55.89,35.95-111.89,53.42-167.99.41-1.3.95-2.62,1.63-3.97.13-.25.04-.56-.21-.69-.03,0-.05-.03-.08-.03-84.91-27.04-173.88-26.85-258.52.26-.33.1-.52.45-.44.79,1.1,4.74,3.38,10.28,4.45,13.72,16.35,52.84,32.53,105.69,49.54,158.32.1.31.43.47.73.38h.03c12.27-4.83,25.19-8.64,38.75-11.45,1.99-.41,3.53,0,4.63,1.23h0Zm-251.12-70.33l-2.75,2.62c-37.49,37.9-66.24,81.49-86.24,130.76-.09.22,0,.47.22.57,55.89,26.9,111.2,54.79,168,79.78.28.13.62,0,.75-.28,0-.02.01-.03.02-.05,11.14-31.43,28.16-59.11,51.06-83.04l2.29-2.19c20.68-20.15,44.67-35.69,71.98-46.62.3-.12.45-.46.33-.76v-.02c-24.74-55.07-49.94-109.36-75.41-164.25-.21-.46-.75-.68-1.23-.49-48.4,19.46-91.4,47.45-129,83.97h-.02Zm653.82,134.51c-40.21-99.71-119.5-178.68-219.22-218.54-.35-.14-.75.02-.91.37-20.17,43.44-40.19,86.57-60.07,129.39-3.76,8.09-8.78,19.73-15.05,34.92-.12.31.02.65.32.77h.01c61.12,23.52,106.45,70.56,126.49,132.78.06.19.29.29.51.21.02,0,.03-.01.05-.02,56.09-25.84,111.94-52.17,167.56-79,.32-.15.45-.54.32-.89h-.01Zm-574.31,214.91c-8.43,3.47-16.8,7.1-25.09,10.9-44,20.13-87.83,40.62-131.5,61.48-4.29,2.05-8.51,4.15-12.65,6.3-.21.11-.3.36-.21.57,19.14,49.46,47.38,92.96,84.73,130.5.28.57.66,1.09,1.13,1.57,35.56,35.62,81.37,68.83,128.66,86.88.32.13.69-.01.87-.33,1.56-2.75,3.43-6.53,5.61-11.36,23.95-53.13,49.41-105.53,73.13-158.79l1-2.27c.13-.3-.01-.64-.32-.77h-.01c-22.79-9.4-43.65-22.01-62.58-37.83l-10.01-9.52c-21.53-20.91-37.93-45.64-49.2-74.21-5.27-14.38-9.21-29.3-11.8-44.78-.82-16.75-.94-33.72-.35-50.93,1.71-14.06,4.58-27.87,8.63-41.44.04-.13.03-.26-.02-.3-.01,0-.03-.01-.04,0h-.29c-.46,0-.83-.05-1.12-.15l-174.05-58.68c-.33-.11-.69.08-.8.41-26.88,80.03-27.05,167.9-1.47,248.15.1.32.44.5.76.4h0c58.66-18.89,117.36-37.77,176.08-56.64,2.02-.64,2.32-.36.9.84h.01Zm437.59-143.83l-30.51,10.21c-.32.1-.5.45-.41.78,3.6,13.01,6.2,26.22,7.81,39.64.6,17.37.47,34.74-.4,52.11-2.35,13.25-5.62,26.27-9.82,39.04-.1.31.08.65.4.75h0l103.02,32.68c25.39,7.73,50.51,16.36,76.04,23.63.39.12.8-.11.93-.5,5.92-19.61,10.59-39.47,14.01-59.58l3.14-4.78c.22-.33.34-.72.34-1.11-.06-4.02,1.68-7.35,1.88-11.1.19-3.63.91-7.26.88-10.79-.17-14.21,1.1-28.61.65-42.5-.37-11.38-.46-22.93-1.49-34.02-.82-8.91-1.1-17.61-3.77-26.35-2.67-8.73-3.06-17.74-5.34-26.27-2.45-9.19-4.49-18.59-9.08-28.1-.14-.28-.44-.56-.84-.77l-2.02-1.08c.02-.43-.1-.69-.56-.54-48.32,16.11-96.6,32.32-144.84,48.63l-.02.02Zm-251.45,282.23c-.15-.03-.28-.02-.39.02-.3.14-.5.2-.6.19-19.47-1.93-37.88-6.05-55.23-12.35-1.54-.55-2.58-.06-3.12,1.47-20.95,59.32-39.89,118.73-58.25,178.7-.09.29.08.59.37.68,13.21,3.85,27.32,8.19,39.87,11.03,30.2,6.83,60.92,10.25,92.14,10.24l6.59.1c.76,4.4,36.74.66,42.59.28,19.44-1.26,40.05-5.9,59.74-11.15,8.93-2.39,17.95-5.15,27.06-8.29.76-.26,1.33-.88,1.52-1.66.2-.85.12-1.36-.26-1.54-19.24-59.09-38.94-118.06-59.09-176.89l-1.23-2.86c-.14-.32-.49-.49-.82-.4-3.18.88-6.33,1.82-9.47,2.82-15.03,4.79-30.4,7.96-46.1,9.51-.65.07-1.73.3-3.23.69l11.96-153.05c.06-.76.5-1.44,1.16-1.82,22.11-12.47,34.08-35.48,30.92-60.54-5.53-43.84-53.94-67.14-91.95-44.49-41.38,24.65-37.47,83.28,3.49,105.62.27.15.45.43.48.74l11.86,152.92v.03Zm166.13-59.4c-21.14,19.88-45.25,35.13-72.35,45.75-.51.2-.78.75-.6,1.23,0,.02.02.04.03.06l1.62,3.45,52.11,111.55c-1.67.57-2.12,1.63-1.35,3.19,5.14,10.36,9.89,20.9,14.26,31.62,1.43,3.5,4.11,6.4,5.79,9.99,2.75,5.85,4.64,9.4,7.08,14.07.3.58.98.84,1.58.61,14.97-5.74,27.16-11.21,43.3-19.93,20.33-10.98,39.55-24.55,57.78-38.71,6.23-4.84,11.96-10.91,17.94-16.44,33.24-30.74,54.52-58.29,75.86-95.78,8.06-14.16,14.91-29.03,20.55-44.64.56-1.54,1.3-2.98,2.21-4.34,1.74-2.57,1.09-3.65-1.94-3.24-54.04-25.35-108.33-50.13-162.87-74.34l-7.2-2.49c-.15-.37-.8-.46-1.93-.29-.36.06-.67.32-.82.68-11.28,29.78-28.29,55.78-51.05,78h0Z"/><path class="cls-40" d="m541.76,297.86c-9.43-41.68-18.36-83.51-26.79-125.5-.3-1.5-2.88-16.11-3.06-16.17-.12-.04-.26.08-.31.27v.04c-1.37,8.17-3.69,19.58-6.94,34.21-11.09,49.93-19.23,85.86-24.4,107.8-1.1-1.24-2.64-1.65-4.63-1.23-13.56,2.8-26.48,6.62-38.75,11.45-.29.11-.63-.04-.75-.34,0,0,0-.02-.01-.03-17-52.63-33.19-105.48-49.54-158.32-1.07-3.45-3.35-8.98-4.45-13.72-.08-.34.11-.69.44-.79,84.64-27.11,173.61-27.29,258.52-.26.26.08.41.36.33.63,0,.03-.02.06-.03.08-.68,1.35-1.23,2.67-1.63,3.97-17.48,56.1-35.29,112.1-53.42,167.99-.1.31-.44.48-.76.38h0c-11.03-3.67-20.45-6.54-28.25-8.61-4.6-1.21-9.78-1.83-15.54-1.86h-.03Z"/><path class="cls-49" d="m362.48,356.36c-8.25-8.98-16.98-17.52-26.18-25.63-30.38-26.77-59.21-55.55-87.74-84.26-2.22-2.23-5.48-5.25-9.79-9.04-3.37-2.96-6.59-6.03-9.64-9.23,37.6-36.52,80.6-64.51,129-83.97.48-.19,1.02.02,1.23.49,25.48,54.89,50.67,109.18,75.41,164.25.13.3,0,.64-.3.77h-.02c-27.3,10.93-51.3,26.47-71.98,46.62h0Z"/><path class="cls-44" d="m663.74,144.16c99.72,39.86,179.01,118.83,219.22,218.54.14.35,0,.74-.32.89-55.62,26.82-111.48,53.16-167.56,79-.21.1-.46.03-.55-.16,0-.01-.01-.03-.02-.04-20.04-62.21-65.37-109.25-126.49-132.78-.3-.11-.45-.46-.33-.77h0c6.27-15.2,11.29-26.84,15.05-34.93,19.88-42.82,39.9-85.95,60.07-129.39.17-.34.56-.5.91-.37h.02Z"/><path class="cls-51" d="m541.76,297.86l9.3,37.57c.27,1.09.08,2.18-.52,2.95l-39.35,50.26c-.08.1-.23.11-.34.03-.02-.02-.04-.03-.05-.05l-39.03-51.47c-.27-.35-.37-.76-.28-1.11,3.33-12.42,6.25-24.92,8.76-37.51,5.18-21.94,13.31-57.87,24.4-107.8,3.25-14.64,5.56-26.04,6.94-34.21.03-.19.16-.34.29-.32h.03c.18.06,2.75,14.68,3.06,16.17,8.43,41.99,17.37,83.82,26.79,125.5h0Z"/><path class="cls-41" d="m229.13,228.19c3.06,3.19,6.27,6.27,9.64,9.23,4.31,3.79,7.57,6.81,9.79,9.04,28.52,28.72,57.36,57.5,87.74,84.26,9.21,8.11,17.93,16.65,26.18,25.63l-2.29,2.19c-8.41-7.37-18.3-18.03-23.78-23.45-15.57-15.37-31.01-30.83-47.11-45.76-21.01-19.48-41.98-38.99-62.92-58.53l2.75-2.62h0Z"/><path class="cls-42" d="m226.38,230.81c20.94,19.54,41.91,39.05,62.92,58.53,16.1,14.93,31.55,30.39,47.11,45.76,5.49,5.42,15.37,16.08,23.78,23.45-22.9,23.93-39.92,51.61-51.06,83.04-.11.3-.43.45-.72.35-.02,0-.03-.01-.04-.02-56.8-24.99-112.12-52.88-168-79.78-.21-.1-.31-.35-.22-.57,20-49.28,48.74-92.86,86.24-130.76h0Z"/><path class="cls-49" d="m300.06,485.01l-144.16,23.37c-.46.07-.81.35-.8.66,0,.47.5.79,1.49.95,27.73,4.69,75.68,13.34,143.83,25.95,2.59,15.48,6.53,30.41,11.8,44.78-.15-2.36-1.34-3.4-3.57-3.12,1.41-1.2,1.11-1.48-.9-.84-58.73,18.87-117.42,37.75-176.08,56.64-.32.1-.66-.07-.77-.4h0c-25.57-80.24-25.4-168.11,1.47-248.15.11-.34.47-.52.8-.41l174.05,58.68c.29.1.67.15,1.12.15h.29c.06-.01.1.08.08.22,0,.03-.01.06-.02.09-4.05,13.57-6.92,27.38-8.63,41.44h0Z"/><path class="cls-37" d="m891.63,385.67c-.02.62.16,1.53.56,2.74,15.55,47.7,21.83,96.96,18.84,147.79-1.6-1.94-2.35-4.48-2.26-7.61.14-4.4.21-14.14.21-29.19,0-7.18-.3-14.07-.91-20.67-.3-3.21-1.27-20.45-2.78-21.95-.3-.3-.47-.66-.48-1-.16-11.13-3.63-21.28-5.62-31.11-1.75-8.61-4.06-17.06-6.95-25.38-1.22-3.51-2.32-5.96-2.07-9.82.03-.4-.28-.74-.68-.76-.11,0-.23.01-.33.06-10.41,4.42-21.21,7.61-31.62,11.38-5.85,2.12-9.66,3.42-11.43,3.89-14.26,3.82-24.29,7.14-39.75,12.49-4.42,1.54-8.81,3.15-13.18,4.85-12.06,4.69-26.44,7.57-36.99,11.43-1.12.41-1.98.64-2.58.71-.46.05-.84.16-1.12.34-2.09,1.37-4.18,1.34-6.27-.1,48.24-16.32,96.53-32.53,144.84-48.63.46-.16.59.11.56.54h0Z"/><path class="cls-45" d="m891.63,385.67l2.02,1.08c.4.21.7.48.84.77,4.6,9.51,6.63,18.91,9.08,28.1,2.28,8.53,2.67,17.54,5.34,26.27,2.67,8.74,2.95,17.44,3.77,26.35,1.02,11.09,1.12,22.64,1.49,34.02.45,13.9-.82,28.29-.65,42.5.04,3.52-.68,7.15-.88,10.79-.2,3.75-1.94,7.08-1.88,11.1,0,.39-.12.78-.34,1.11l-3.14,4.78,3.75-36.34c2.99-50.83-3.29-100.09-18.84-147.79-.4-1.21-.59-2.12-.56-2.74h0Z"/><path class="cls-46" d="m911.04,536.21l-3.75,36.34c-3.41,20.11-8.08,39.97-14.01,59.58-.12.39-.54.62-.93.5-25.52-7.28-50.65-15.91-76.04-23.63-.2-.5-.29-1.04-.26-1.62.02-.37-.18-.7-.5-.82-11.21-4.06-20.08-7-26.61-8.8-7.08-1.95-14.09-4.83-20.09-6.57-12.98-3.8-25.74-8.22-38.3-13.24-3.62-1.45-7.87-2.69-12.75-3.73-1.89-.41-2.21-1.35-.98-2.83,1.13-1.35,1.41-3.86,1.78-5,3.09-9.62,4.96-19.48,5.62-29.57.29-.26.94-.71,1.33-.78,46.68-8.62,93.35-17.37,139.99-26.23.83-.16,3.6-.06,2.39-1.56-.22-.27-.58-.47-1.01-.54-47.44-7.83-93.64-14.33-143.82-23.31-1.61-13.42-4.21-26.63-7.81-39.64-.09-.33.09-.68.41-.78l30.51-10.21c2.09,1.44,4.18,1.47,6.27.1.28-.18.66-.29,1.12-.34.6-.07,1.46-.3,2.58-.71,10.56-3.86,24.94-6.74,36.99-11.43,4.36-1.7,8.76-3.32,13.18-4.85,15.46-5.35,25.49-8.68,39.75-12.49,1.77-.47,5.58-1.77,11.43-3.89,10.41-3.78,21.21-6.96,31.62-11.38.37-.16.8.01.96.38.04.1.06.21.05.33-.24,3.86.85,6.31,2.07,9.82,2.88,8.31,5.2,16.77,6.95,25.38,1.99,9.82,5.46,19.98,5.62,31.11,0,.34.18.69.48,1,1.51,1.5,2.47,18.75,2.78,21.95.61,6.61.91,13.5.91,20.67,0,15.06-.07,24.79-.21,29.19-.1,3.13.65,5.66,2.26,7.61h.02Z"/><path class="cls-50" d="m526.88,716.6l-2.68,32.28c-3.49,43.77-7.81,87.45-12.96,131.04-.04.31-.42.42-1.15.34-5.88-54.68-10.98-109.44-15.31-164.27l-11.86-152.92c-.02-.31-.2-.59-.48-.74-40.96-22.34-44.87-80.97-3.49-105.62,38.02-22.65,86.42.65,91.95,44.49,3.16,25.06-8.81,48.07-30.92,60.54-.66.37-1.1,1.05-1.16,1.82l-11.96,153.05h.02Z"/><path class="cls-51" d="m723.12,484.4c50.18,8.97,96.38,15.48,143.82,23.31.43.07.79.26,1.01.54,1.21,1.5-1.56,1.4-2.39,1.56-46.64,8.87-93.31,17.61-139.99,26.23-.39.07-1.04.52-1.33.78l-1.52-.3c.87-17.37,1-34.73.4-52.11h0Z"/><path class="cls-51" d="m300.06,485.01c-.59,17.2-.47,34.18.35,50.93-68.15-12.61-116.1-21.26-143.83-25.95-.99-.16-1.49-.48-1.49-.95,0-.31.34-.59.8-.66l144.16-23.37h.01Z"/><path class="cls-37" d="m722.72,536.51l1.52.3c-.66,10.09-2.53,19.95-5.62,29.57-.37,1.13-.65,3.64-1.78,5-1.24,1.48-.91,2.42.98,2.83,4.88,1.04,9.13,2.28,12.75,3.73,12.55,5.02,25.32,9.43,38.3,13.24,6,1.74,13.01,4.62,20.09,6.57,6.53,1.8,15.4,4.74,26.61,8.8.32.12.52.45.5.82-.03.59.05,1.13.26,1.62l-103.02-32.68c-.32-.1-.5-.44-.4-.75h0c4.2-12.77,7.48-25.79,9.82-39.04h0Z"/><path class="cls-42" d="m312.21,580.72c11.26,28.56,27.66,53.3,49.2,74.21l-137.48,132.42c-37.35-37.53-65.59-81.03-84.73-130.5-.09-.22,0-.46.21-.57,4.14-2.15,8.36-4.25,12.65-6.3,43.66-20.86,87.49-41.35,131.5-61.48,8.29-3.79,16.65-7.43,25.09-10.9,2.23-.28,3.42.76,3.57,3.12h-.01Z"/><path class="cls-46" d="m714.7,578.21c-7.26,22.49-18.28,42.62-33.08,60.38-3.09,3.7-6.79,7.47-11.1,11.31-2.36,2.12-8.48,3.4-3.79,7.85,43.99,41.74,87.85,83.62,131.57,125.62.97.93,2.02,1.73,3.14,2.4-36.8,37.96-79.54,67.31-128.2,88.07-4.74,2.02-4.42,1.66-6.33-2.41-8.27-17.68-16.67-35.28-25.19-52.79l-52.11-111.55c6.08-4.49,12.54-8.33,19.39-11.54,3.71-1.74,7.25-3.63,10.64-5.67,6.86-4.16,12.77-6.63,20.47-12.09,5.84-4.14,8.79-6.22,8.84-6.27,5.06-4.03,9.05-9,11.97-14.92,22.75-22.22,39.77-48.22,51.05-78,.14-.36.45-.62.82-.68,1.13-.17,1.77-.07,1.93.29h-.02Z"/><path class="cls-52" d="m714.7,578.21l7.2,2.49c-.8,4.89,2.9,4.12,5.46,5.33,10.35,4.92,29.25,13.39,56.7,25.43,12.2,5.35,34.51,16.64,58.74,27.02,11.91,5.11,22.72,11.01,35.37,15.85,2.38.92,3.05,2.54,2.01,4.86-.85,1.9-1.12,4.7-.8,8.39-17.43,42.09-44.51,85.86-77.95,118.21-1.13-.67-2.18-1.47-3.14-2.4-43.72-42-87.57-83.88-131.57-125.62-4.69-4.45,1.43-5.73,3.79-7.85,4.31-3.84,8.02-7.61,11.1-11.31,14.8-17.76,25.82-37.89,33.08-60.38v-.02Z"/><path class="cls-39" d="m721.9,580.7c54.54,24.22,108.83,49,162.87,74.34l-5.39,12.53c-.32-3.69-.05-6.48.8-8.39,1.04-2.32.37-3.95-2.01-4.86-12.65-4.84-23.46-10.74-35.37-15.85-24.23-10.39-46.54-21.67-58.74-27.02-27.45-12.03-46.35-20.51-56.7-25.43-2.56-1.21-6.27-.44-5.46-5.33h0Z"/><path class="cls-45" d="m884.77,655.04c3.03-.41,3.68.67,1.94,3.24-.91,1.36-1.65,2.8-2.21,4.34-5.64,15.6-12.49,30.48-20.55,44.64-21.34,37.49-42.63,65.04-75.86,95.78-5.98,5.53-11.71,11.6-17.94,16.44-18.22,14.16-37.44,27.73-57.78,38.71-16.14,8.72-28.33,14.19-43.3,19.93-.6.23-1.28-.03-1.58-.61-2.44-4.67-4.33-8.22-7.08-14.07-1.68-3.6-4.36-6.5-5.79-9.99-4.37-10.72-9.13-21.26-14.26-31.62-.77-1.56-.32-2.62,1.35-3.19,8.52,17.51,16.92,35.11,25.19,52.79,1.9,4.07,1.58,4.44,6.33,2.41,48.67-20.75,91.4-50.11,128.2-88.07,33.43-32.35,60.52-76.12,77.95-118.21l5.39-12.53h0Z"/><path class="cls-52" d="m361.41,654.93l10.01,9.52c-1.83.62-1.71,2.32-.41,3.41,16.82,14.27,37.51,28.34,58.56,35.34.49.16.56.37.87.71.22.26.58.39.98.35.83-.09,1.47.27,1.93,1.07-23.72,53.25-49.18,105.66-73.13,158.79-2.18,4.83-4.05,8.61-5.61,11.36-.18.32-.55.46-.87.33-47.28-18.05-93.1-51.27-128.66-86.88-.47-.48-.85-1-1.13-1.57l137.48-132.42h-.02Z"/><path class="cls-37" d="m660.91,656.6c-2.92,5.92-6.91,10.89-11.97,14.92-.05.04-2.99,2.13-8.84,6.27-7.69,5.46-13.6,7.94-20.47,12.09-3.39,2.04-6.94,3.93-10.64,5.67-6.85,3.21-13.31,7.06-19.39,11.54l-1.62-3.45c-.22-.46,0-1.03.5-1.26.02-.01.05-.02.07-.03,27.1-10.61,51.22-25.86,72.35-45.75h.01Z"/><path class="cls-39" d="m371.42,664.45c18.93,15.82,39.79,28.43,62.58,37.83.31.12.46.47.33.77h0s-1,2.28-1,2.28c-.46-.8-1.1-1.16-1.93-1.07-.39.04-.76-.09-.98-.35-.3-.34-.38-.55-.87-.71-21.05-7-41.74-21.06-58.56-35.34-1.29-1.1-1.41-2.79.41-3.41h.02Z"/><path class="cls-47" d="m494.78,715.99c4.33,54.83,9.43,109.59,15.31,164.27l-.52,25.73c-31.22,0-61.93-3.4-92.14-10.24-12.55-2.84-26.66-7.18-39.87-11.03-.29-.09-.45-.39-.37-.68,18.36-59.97,37.3-119.38,58.25-178.7.54-1.54,1.58-2.03,3.12-1.47,17.35,6.3,35.76,10.41,55.23,12.35.1,0,.3-.06.6-.19.11-.05.24-.06.39-.02v-.02Z"/><path class="cls-48" d="m587.72,706.85c-3.54-1.71-6.64-1.23-9.29,1.44-.3.3-.65.5-1.01.59-6.07,1.39-12.09,2.99-18.05,4.79-9.25,2.8-18.66,4.68-28.24,5.64-.53.05-.96.55-1,1.18l-1.55,25.29c-.15,2.33-.73,3.58-1.74,3.73-.77.12-1.65-.09-2.65-.63l2.68-32.28c1.5-.4,2.58-.63,3.23-.69,15.7-1.55,31.07-4.72,46.1-9.51,3.14-1,6.29-1.94,9.47-2.82.33-.09.68.08.82.4l1.23,2.86h0Z"/><path class="cls-43" d="m587.72,706.85c20.15,58.83,39.85,117.8,59.09,176.89-42.55,14.46-86.1,21.91-130.65,22.35l-6.59-.1.52-25.73c.72.08,1.11-.03,1.15-.34,5.15-43.6,9.47-87.28,12.96-131.04.99.54,1.87.76,2.65.63,1.02-.15,1.6-1.4,1.74-3.73l1.55-25.29c.04-.63.47-1.13,1-1.18,9.58-.97,18.99-2.85,28.24-5.64,5.96-1.8,11.98-3.4,18.05-4.79.37-.09.72-.29,1.01-.59,2.65-2.67,5.75-3.14,9.29-1.44h-.01Z"/><path class="cls-38" d="m646.82,883.74c.37.18.46.69.26,1.54-.19.77-.77,1.4-1.52,1.66-9.11,3.14-18.13,5.9-27.06,8.29-19.69,5.25-40.3,9.9-59.74,11.15-5.85.38-41.83,4.12-42.59-.28,44.56-.45,88.11-7.9,130.65-22.35h0Z"/></svg>