<?xml version="1.0" encoding="UTF-8"?>
<svg id="uuid-c1c2f465-6316-44ac-a848-f0a12b8d8d19" xmlns="http://www.w3.org/2000/svg"
     viewBox="0 0 20.19 20.28"><defs><linearGradient id="uuid-d1ea4098-a6b1-416e-978a-4fde9201e713" x1="5.96" y1="15.1" x2="18.88" y2="-.41" gradientUnits="userSpaceOnUse"><stop offset="0" stop-color="#ffe53f"/><stop offset="1" stop-color="#d688ff"/></linearGradient></defs><path d="M9.13.61c.18-.35.53-.61.97-.61s.79.26.97.61l1.05,2.28c.26.61,1.05.97,1.76.7l2.28-.88c.35-.18.79-.09,1.05.26.26.26.35.7.26,1.14l-.88,2.28c-.26.7.09,1.49.7,1.76l2.28,1.05c.35.18.61.53.61.97s-.26.79-.61.97l-2.28,1.05c-.61.26-.97,1.05-.7,1.76l.88,2.28c.18.35.09.79-.26,1.05-.26.26-.7.35-1.05.26l-2.28-.88c-.7-.26-1.49.09-1.76.7l-1.05,2.28c-.18.35-.53.61-.97.61s-.79-.26-.97-.61l-1.05-2.28c-.26-.61-1.05-.97-1.76-.7l-2.28.88c-.35.18-.79.09-1.05-.26s-.35-.7-.26-1.05l.88-2.28c.26-.7-.09-1.49-.7-1.76l-2.28-1.05c-.35-.18-.61-.53-.61-.97s.26-.79.61-.97l2.28-1.05c.61-.26.97-1.05.7-1.76l-.88-2.28c-.18-.44-.09-.88.26-1.14.26-.26.7-.35,1.05-.26l2.28.88c.7.26,1.49-.09,1.76-.7l1.05-2.28Z" style="fill:url(#uuid-d1ea4098-a6b1-416e-978a-4fde9201e713); fill-rule:evenodd; isolation:isolate;"/><path d="M14.48,10.09c0,2.46-1.93,4.39-4.39,4.39s-4.39-1.93-4.39-4.39,1.93-4.39,4.39-4.39,4.39,1.93,4.39,4.39" style="fill:#301e3a; fill-rule:evenodd;"/></svg>